<?xml version="1.0" encoding="utf-8"?>
<!-- Generator: Adobe Illustrator 16.0.0, SVG Export Plug-In . SVG Version: 6.00 Build 0)  -->
<!DOCTYPE svg PUBLIC "-//W3C//DTD SVG 1.1//EN" "http://www.w3.org/Graphics/SVG/1.1/DTD/svg11.dtd">
<svg version="1.1" id="Layer_1" xmlns="http://www.w3.org/2000/svg" xmlns:xlink="http://www.w3.org/1999/xlink" x="0px" y="0px"
	 width="2048px" height="2048px" viewBox="0 0 2048 2048" enable-background="new 0 0 2048 2048" xml:space="preserve">
<rect fill="none" width="2048" height="2048"/>
<g>
	
		<linearGradient id="SVGID_1_" gradientUnits="userSpaceOnUse" x1="482.1484" y1="1617.1396" x2="1497.3027" y2="1617.1396" gradientTransform="matrix(1 0 0 -1 0 2049)">
		<stop  offset="0" style="stop-color:#1F4387"/>
		<stop  offset="0.3171" style="stop-color:#2160A0"/>
		<stop  offset="1" style="stop-color:#26A9E0"/>
	</linearGradient>
	<path fill="url(#SVGID_1_)" d="M1496.546,463.987l-86.418-189.582c-6.155-13.351-22.079-19.64-36.104-14.065l-129.607,50.804
		l-421.569-40.666L482.148,604.132l493.909,1.281l295.428-246.26l98.103-38.47l75.496,165.541c0.269,0.571,0.732,0.958,1.027,1.468
		c11.896-13.316,29.295-22.016,48.933-21.94c0.733,0,1.429,0.214,2.259,0.214C1496.976,465.279,1496.875,464.593,1496.546,463.987z"
		/>
	
		<linearGradient id="SVGID_2_" gradientUnits="userSpaceOnUse" x1="1470.2568" y1="1418.0967" x2="1546.1599" y2="1501.5901" gradientTransform="matrix(1 0 0 -1 0 2049)">
		<stop  offset="0" style="stop-color:#1F4387"/>
		<stop  offset="0.3171" style="stop-color:#2160A0"/>
		<stop  offset="1" style="stop-color:#26A9E0"/>
	</linearGradient>
	<path fill="url(#SVGID_2_)" d="M1521.407,509.838c-0.851,0-1.589-0.262-2.397-0.229c-21.479-0.101-40.608,9.427-53.672,24.046
		c-10.561,11.895-17.293,27.149-17.449,43.972c-0.394,37.69,30.869,68.335,69.746,68.432c38.861,0.105,70.75-30.366,71.111-68.074
		C1589.138,541.104,1559.167,511.163,1521.407,509.838z"/>
	
		<linearGradient id="SVGID_3_" gradientUnits="userSpaceOnUse" x1="782.4448" y1="1298.8643" x2="1400.9812" y2="1579.6726" gradientTransform="matrix(1 0 0 -1 0 2049)">
		<stop  offset="0" style="stop-color:#1F4387"/>
		<stop  offset="0.192" style="stop-color:#2A66A3"/>
		<stop  offset="0.4202" style="stop-color:#3587BF"/>
		<stop  offset="0.6372" style="stop-color:#3DA0D4"/>
		<stop  offset="0.836" style="stop-color:#41AFE0"/>
		<stop  offset="1" style="stop-color:#43B4E4"/>
	</linearGradient>
	<polygon fill="url(#SVGID_3_)" points="747.397,662.61 816.911,817.202 1259.932,636.8 1198.426,492.22 1003.625,654.697 	"/>
	
		<linearGradient id="SVGID_4_" gradientUnits="userSpaceOnUse" x1="1030.3584" y1="291.1685" x2="1365.7754" y2="291.1685" gradientTransform="matrix(1 0 0 -1 0 2049)">
		<stop  offset="0" style="stop-color:#1F4387"/>
		<stop  offset="0.289" style="stop-color:#28609F"/>
		<stop  offset="0.9126" style="stop-color:#40A9DB"/>
		<stop  offset="1" style="stop-color:#43B4E4"/>
	</linearGradient>
	<path fill="url(#SVGID_4_)" d="M1126.246,1805.321h117.162c50.73,0,122.367-26.355,122.367-78.13v-16.85l-335.417,65.103
		C1055.861,1795.256,1095.001,1805.321,1126.246,1805.321z"/>
	
		<linearGradient id="SVGID_5_" gradientUnits="userSpaceOnUse" x1="1003.8955" y1="376.9458" x2="1365.7813" y2="376.9458" gradientTransform="matrix(1 0 0 -1 0 2049)">
		<stop  offset="0" style="stop-color:#1F4387"/>
		<stop  offset="0.289" style="stop-color:#28609F"/>
		<stop  offset="0.9126" style="stop-color:#40A9DB"/>
		<stop  offset="1" style="stop-color:#43B4E4"/>
	</linearGradient>
	<path fill="url(#SVGID_5_)" d="M1003.896,1727.191c0,4.199,0.663,8.167,1.547,12.034l360.338-69.938v-64.404l-361.886,70.226
		V1727.191z"/>
	
		<linearGradient id="SVGID_6_" gradientUnits="userSpaceOnUse" x1="770.1831" y1="880.6328" x2="1599.4756" y2="880.6328" gradientTransform="matrix(1 0 0 -1 0 2049)">
		<stop  offset="0" style="stop-color:#1F4387"/>
		<stop  offset="0.289" style="stop-color:#28609F"/>
		<stop  offset="0.9126" style="stop-color:#40A9DB"/>
		<stop  offset="1" style="stop-color:#43B4E4"/>
	</linearGradient>
	<path fill="url(#SVGID_6_)" d="M1291.777,702.696L846.646,874.024c-48.056,72.095-76.463,160.125-76.463,255.353
		c0,174.799,95.402,325.858,233.712,397.387v107.275l361.886-70.212v-37.063c138.348-71.586,233.694-222.608,233.694-397.387
		C1599.475,924.855,1468.918,752.913,1291.777,702.696z M1340.976,1099.614l-140.086,107.38v275.65
		c0,9.059-7.201,16.406-16.025,16.406c-8.854,0-16.053-7.348-16.053-16.406v-275.65l-140.112-107.38
		c-7.077-5.397-8.513-15.67-3.168-22.904c5.281-7.253,15.341-8.669,22.38-3.253l136.954,104.862l136.879-104.862
		c7.086-5.434,17.148-3.963,22.448,3.253C1349.45,1083.944,1348.079,1094.222,1340.976,1099.614z"/>
</g>
</svg>
